<?xml version="1.0" encoding="utf-8"?>
<!-- Generator: Adobe Illustrator 18.0.0, SVG Export Plug-In . SVG Version: 6.00 Build 0)  -->
<!DOCTYPE svg PUBLIC "-//W3C//DTD SVG 1.1//EN" "http://www.w3.org/Graphics/SVG/1.1/DTD/svg11.dtd">
<svg version="1.1" id="レイヤー_1" xmlns="http://www.w3.org/2000/svg" xmlns:xlink="http://www.w3.org/1999/xlink" x="0px"
	 y="0px" width="206px" height="75px" viewBox="0 0 206 75" enable-background="new 0 0 206 75" xml:space="preserve">
<g>
	<path d="M48.6,7.2c0,1.6-1.4,3.2-3.9,3.2c-0.7,0-1.8-0.2-2.6-0.6c-0.2-0.1-0.3-0.4-0.3-0.7c0-0.5,0-1,0-1.4c0-0.2,0.1-0.5,0.3-0.5
		c0.3,0,0.4,0.6,0.5,1.1c0.2,1,0.9,1.6,2.1,1.6c1.2,0,2.2-0.8,2.2-1.9c0-1.2-0.9-1.8-2-2.3c-0.3-0.1-0.5-0.2-0.8-0.3
		C43,5,42,4.3,42,2.9c0-2,2-2.8,3.4-2.8c0.6,0,1.6,0.1,2.3,0.3c0.3,0.1,0.3,0.3,0.3,0.6c0,0.4,0,0.8,0.1,1.2c0,0.2-0.1,0.4-0.3,0.4
		c-0.2,0-0.3-0.2-0.4-0.4c-0.3-1-0.8-1.6-1.9-1.6c-0.9,0-1.9,0.5-1.9,1.6c0,1.3,1.5,1.7,2.7,2.3C47.4,4.8,48.6,5.6,48.6,7.2
		L48.6,7.2z"/>
	<path d="M55.6,5.3c-0.5,0-0.5,0-0.5,0.5v2.6c0,1.1,0,1.3,0.9,1.4c0.2,0,0.5,0,0.5,0.3c0,0.2-0.2,0.3-0.4,0.3
		c-0.5,0-1.1-0.1-1.8-0.1c-0.7,0-1.5,0.1-2.1,0.1c-0.2,0-0.3,0-0.3-0.3c0-0.2,0.2-0.3,0.5-0.3c0.9,0,0.9-0.2,0.9-1.4V2.2
		c0-1.2,0-1.4-0.9-1.4c-0.2,0-0.5,0-0.5-0.3c0-0.2,0.2-0.3,0.3-0.3c0.5,0,1.3,0.1,1.9,0.1c0.8,0,1.4-0.1,1.9-0.1
		c0.2,0,0.3,0,0.3,0.3c0,0.2-0.3,0.3-0.4,0.3c-0.9,0-0.9,0.2-0.9,1.4v2c0,0.4,0,0.4,0.5,0.4h3.9c0.5,0,0.5,0,0.5-0.6V2.2
		c0-1.2,0-1.4-0.9-1.4c-0.2,0-0.4,0-0.4-0.3c0-0.2,0.1-0.3,0.3-0.3c0.5,0,1.1,0.1,1.9,0.1c0.9,0,1.5-0.1,2-0.1c0.2,0,0.3,0,0.3,0.3
		c0,0.3-0.3,0.3-0.5,0.3c-0.9,0-0.9,0.2-0.9,1.4v6.2c0,1.2,0,1.4,1,1.4c0.2,0,0.4,0,0.4,0.3c0,0.2-0.2,0.3-0.3,0.3
		c-0.6,0-1.2-0.1-2-0.1c-0.7,0-1.2,0.1-1.8,0.1c-0.2,0-0.4-0.1-0.4-0.3c0-0.2,0.2-0.2,0.4-0.3C60,9.8,60,9.6,60,8.6V5.8
		c0-0.5,0-0.5-0.5-0.5H55.6z"/>
	<path d="M69.8,8.4c0,1.2,0,1.4,1,1.4c0.2,0,0.4,0,0.4,0.3c0,0.2-0.2,0.3-0.3,0.3c-0.5,0-1-0.1-1.9-0.1c-0.9,0-1.5,0.1-2,0.1
		c-0.2,0-0.3,0-0.3-0.3c0-0.2,0.2-0.3,0.5-0.3c1,0,1-0.2,1-1.4V2.2c0-1.2,0-1.4-1-1.4c-0.2,0-0.5,0-0.5-0.3c0-0.2,0.2-0.3,0.3-0.3
		c0.5,0,1.2,0.1,2,0.1c0.8,0,1.4-0.1,1.9-0.1c0.2,0,0.3,0,0.3,0.3c0,0.3-0.3,0.3-0.5,0.3c-1,0-1,0.2-1,1.4V8.4z"/>
	<path d="M76.3,2.1c0-1,0-1.4-0.7-1.4c-0.3,0-0.6,0.1-0.7,0.1c-0.1,0-0.1-0.1-0.1-0.2c0-0.2,0.3-0.3,0.7-0.4C76.5,0.1,77.7,0,78.9,0
		c0.9,0,2.2,0,3.2,0.4c0.9,0.3,1.6,1,1.6,2c0,1.3-1.1,1.9-2.2,2.1v0c0.2,0,0.5,0,0.7,0.1c1.1,0.4,2.1,1.2,2.1,2.6
		c0,0.8-0.4,1.7-1.3,2.3c-0.8,0.6-1.8,0.6-2.7,0.6c-0.9,0-2.4-0.1-3.5-0.1c-0.8,0-1.3,0.1-1.7,0.1c-0.2,0-0.3,0-0.3-0.3
		c0-0.2,0.2-0.2,0.5-0.2c1,0,1-0.2,1-1.4V2.1z M78,3.8c0,0.6,0.1,0.7,0.7,0.7c0.8,0,1.2,0,1.8-0.1c0.7-0.2,1.3-0.9,1.3-1.8
		c0-1.3-1-2-2.4-2C78,0.5,78,0.8,78,1.6V3.8z M78,8.2c0,1.3,0.2,1.6,1.8,1.6c0.7,0,1.3-0.1,1.9-0.6c0.4-0.4,0.7-1.1,0.7-1.7
		c0-0.9-0.4-1.6-1-2C80.6,5,79.9,5,78.5,5C78.1,5,78,5.1,78,5.7V8.2z"/>
	<path d="M89.8,6.8c0,0.8,0,1.6,0.3,2.2c0.4,0.7,1.5,1,2.3,1c0.9,0,1.8-0.2,2.4-0.9c0.5-0.6,0.5-1.2,0.5-2V2.5
		c0-1.4-0.1-1.6-1.1-1.7c-0.2,0-0.4,0-0.4-0.3c0-0.2,0.2-0.3,0.4-0.3c0.4,0,0.9,0.1,1.4,0.1c0.5,0,0.9-0.1,1.3-0.1
		c0.1,0,0.4,0,0.4,0.3c0,0.2-0.3,0.3-0.5,0.3c-0.8,0-0.8,0.5-0.8,1.4V7c0,1,0,1.9-0.9,2.6c-0.8,0.7-2,0.8-3,0.8c-1,0-2.2-0.2-3-0.7
		c-0.9-0.7-1-1.5-1-2.8V2.2c0-1.2,0-1.4-1-1.4c-0.2,0-0.5,0-0.5-0.3c0-0.2,0.2-0.3,0.3-0.3c0.6,0,1.2,0.1,1.9,0.1
		c0.7,0,1.5-0.1,2-0.1c0.2,0,0.4,0,0.4,0.3c0,0.3-0.3,0.3-0.5,0.3c-1,0-1,0.2-1,1.4V6.8z"/>
	<path d="M101.2,2c0-1,0-1.2-0.9-1.2c-0.2,0-0.5,0-0.5-0.3c0-0.3,0.3-0.3,0.5-0.3c0.3,0,0.8,0,1.3,0c0.4,0,0.9,0,1.1,0
		c0.3,0,0.5,0.2,0.6,0.5c1.6,2.2,3.2,4.3,4.8,6.4c0.1,0.2,0.3,0.4,0.4,0.5V7.5V2.1c0-1.1,0-1.3-1-1.3c-0.2,0-0.4,0-0.4-0.2
		c0-0.2,0.2-0.3,0.3-0.3c0.4,0,0.9,0.1,1.4,0.1c0.5,0,0.9-0.1,1.3-0.1c0.2,0,0.4,0.1,0.4,0.3c0,0.2-0.3,0.2-0.5,0.3
		c-0.9,0-0.9,0.3-0.9,1.3v8c0,0.3,0,0.3-0.3,0.3c-0.4,0-0.5-0.2-0.6-0.4c-0.3-0.3-0.5-0.7-0.8-1c-1.8-2.4-3.5-4.7-5.3-7.1
		c-0.1-0.1-0.3-0.3-0.3-0.4V2v6.5c0,1.2,0,1.3,1.1,1.3c0.2,0,0.3,0,0.3,0.2c0,0.2-0.2,0.3-0.4,0.3c-0.4,0-1-0.1-1.5-0.1
		c-0.5,0-0.9,0.1-1.3,0.1c-0.1,0-0.3,0-0.3-0.3c0-0.2,0.2-0.2,0.5-0.2c0.9,0,1-0.2,1-1.3V2z"/>
	<path d="M114.8,2.2c0-1.2,0-1.4-0.9-1.4c-0.2,0-0.5,0-0.5-0.3c0-0.2,0.2-0.3,0.3-0.3c0.5,0,1.1,0.1,1.9,0.1c0.7,0,1.4-0.1,1.9-0.1
		c0.2,0,0.4,0,0.4,0.3c0,0.2-0.3,0.2-0.5,0.3c-0.9,0-0.9,0.2-0.9,1.3v2.7c0,0.3,0,0.4,0.1,0.4c0.1,0,0.3-0.2,0.4-0.4
		c0.8-0.9,1.7-1.7,2.5-2.6c0.2-0.2,0.7-0.7,0.7-1c0-0.3-0.3-0.4-0.6-0.4c-0.2,0-0.4-0.1-0.4-0.3c0-0.2,0.2-0.3,0.3-0.3
		c0.6,0,1.1,0.1,1.8,0.1c0.7,0,1.2-0.1,1.6-0.1c0.1,0,0.3,0,0.3,0.3c0,0.3-0.3,0.3-0.5,0.3c-0.6,0-1.2,0-2.2,1.1
		c-0.5,0.5-1.1,1.1-1.6,1.6c-0.1,0.1-0.4,0.3-0.4,0.5c0,0.1,0.2,0.3,0.3,0.4c0.9,1.3,1.9,2.6,2.8,3.8c1,1.3,1.3,1.5,1.7,1.6
		c0.3,0,0.5,0,0.5,0.2c0,0.2-0.3,0.3-0.4,0.3c-0.7,0-1.4-0.1-2.1-0.1c-0.8,0-1.4,0.1-1.9,0.1c-0.2,0-0.3,0-0.3-0.2
		c0-0.2,0.2-0.2,0.4-0.2c0.3,0,0.6,0,0.6-0.4c0-0.3-0.3-0.7-0.5-0.9c-0.7-0.9-1.4-2-2.1-2.8c-0.1-0.1-0.3-0.5-0.5-0.5
		c-0.1,0-0.8,0.6-0.8,0.9v2.4c0,1,0.1,1.2,0.7,1.3c0.4,0,0.7,0,0.7,0.3c0,0.2-0.2,0.3-0.4,0.3c-0.6,0-1.2-0.1-1.9-0.1
		c-0.8,0-1.3,0.1-1.9,0.1c-0.1,0-0.3,0-0.3-0.3c0-0.2,0.3-0.3,0.5-0.3c0.9,0,0.9-0.2,0.9-1.4V2.2z"/>
	<path d="M129.1,6.8c-0.3,0-0.4,0-0.6,0.6c-0.2,0.4-0.6,1.4-0.6,1.8c0,0.5,0.7,0.6,1,0.6c0.2,0,0.4,0,0.4,0.3c0,0.2-0.3,0.2-0.4,0.2
		c-0.3,0-1-0.1-1.3-0.1c-0.4,0-1.4,0.1-1.6,0.1c-0.1,0-0.3,0-0.3-0.2c0-0.2,0.3-0.3,0.5-0.3c0.6,0,0.8-0.1,1.3-1.4
		c0.9-2.4,1.8-4.9,2.8-7.3c0.1-0.2,0.2-0.5,0.3-0.7c0-0.2,0.1-0.4,0.5-0.4c0.4,0,0.5,0.2,0.5,0.3c0.9,2.2,2.4,6,3.3,8.2
		c0.2,0.5,0.5,1.3,1.2,1.3c0.2,0,0.5,0,0.5,0.3c0,0.2-0.2,0.2-0.3,0.2c-0.6,0-1.4-0.1-2.2-0.1c-0.5,0-1.4,0.1-2,0.1
		c-0.1,0-0.4,0-0.4-0.2c0-0.3,0.3-0.3,0.5-0.3c0.4,0,0.9,0,0.9-0.4c0-0.4-0.5-1.4-0.6-1.8c-0.3-0.8-0.2-0.8-0.9-0.8H129.1z
		 M131.3,6.1c0.3,0,0.4,0,0.4-0.1c0-0.1-0.1-0.3-0.1-0.4c-0.3-0.9-0.7-1.7-1-2.6c-0.1-0.2-0.2-0.4-0.2-0.4c-0.1,0-0.2,0.3-0.3,0.5
		c-0.3,0.9-0.7,1.8-1,2.8c0,0.1-0.1,0.2-0.1,0.2c0,0.1,0.1,0.1,0.3,0.1H131.3z"/>
	<path d="M139.6,2.2c0-1.2,0-1.4-0.9-1.4c-0.2,0-0.5,0-0.5-0.3c0-0.2,0.2-0.3,0.3-0.3c0.5,0,1.1,0.1,1.9,0.1c0.7,0,1.4-0.1,1.9-0.1
		c0.2,0,0.4,0,0.4,0.3c0,0.2-0.3,0.2-0.5,0.3c-0.9,0-0.9,0.2-0.9,1.3v2.7c0,0.3,0,0.4,0.1,0.4c0.1,0,0.3-0.2,0.4-0.4
		c0.8-0.9,1.7-1.7,2.5-2.6c0.2-0.2,0.7-0.7,0.7-1c0-0.3-0.3-0.4-0.6-0.4c-0.2,0-0.4-0.1-0.4-0.3c0-0.2,0.2-0.3,0.4-0.3
		c0.6,0,1.1,0.1,1.8,0.1c0.7,0,1.2-0.1,1.6-0.1c0.1,0,0.3,0,0.3,0.3c0,0.3-0.3,0.3-0.5,0.3c-0.6,0-1.2,0-2.2,1.1
		c-0.5,0.5-1.1,1.1-1.6,1.6c-0.1,0.1-0.4,0.3-0.4,0.5c0,0.1,0.2,0.3,0.3,0.4c1,1.3,1.9,2.6,2.8,3.8c1,1.3,1.3,1.5,1.7,1.6
		c0.3,0,0.5,0,0.5,0.2c0,0.2-0.3,0.3-0.4,0.3c-0.7,0-1.4-0.1-2.1-0.1c-0.8,0-1.4,0.1-1.9,0.1c-0.2,0-0.3,0-0.3-0.2
		c0-0.2,0.2-0.2,0.4-0.2c0.3,0,0.6,0,0.6-0.4c0-0.3-0.3-0.7-0.5-0.9c-0.7-0.9-1.4-2-2.1-2.8c-0.1-0.1-0.4-0.5-0.5-0.5
		c-0.1,0-0.8,0.6-0.8,0.9v2.4c0,1,0.1,1.2,0.7,1.3c0.4,0,0.7,0,0.7,0.3c0,0.2-0.2,0.3-0.4,0.3c-0.6,0-1.2-0.1-1.9-0.1
		c-0.8,0-1.3,0.1-1.9,0.1c-0.1,0-0.3,0-0.3-0.3c0-0.2,0.3-0.3,0.5-0.3c0.9,0,0.9-0.2,0.9-1.4V2.2z"/>
	<path d="M153.9,6.8c0,0.8,0,1.6,0.3,2.2c0.4,0.7,1.5,1,2.3,1c0.9,0,1.8-0.2,2.4-0.9c0.5-0.6,0.5-1.2,0.5-2V2.5
		c0-1.4-0.1-1.6-1.1-1.7c-0.2,0-0.4,0-0.4-0.3c0-0.2,0.2-0.3,0.4-0.3c0.4,0,0.9,0.1,1.4,0.1c0.5,0,0.9-0.1,1.3-0.1
		c0.1,0,0.4,0,0.4,0.3c0,0.2-0.3,0.3-0.5,0.3c-0.8,0-0.8,0.5-0.8,1.4V7c0,1,0,1.9-0.9,2.6c-0.8,0.7-2,0.8-3,0.8c-1,0-2.2-0.2-3-0.7
		c-0.9-0.7-1-1.5-1-2.8V2.2c0-1.2,0-1.4-0.9-1.4c-0.2,0-0.5,0-0.5-0.3c0-0.2,0.2-0.3,0.3-0.3c0.6,0,1.2,0.1,1.9,0.1
		c0.7,0,1.5-0.1,2-0.1c0.2,0,0.3,0,0.3,0.3c0,0.3-0.3,0.3-0.5,0.3c-0.9,0-0.9,0.2-0.9,1.4V6.8z"/>
	<path d="M95.4,33.5c1,1.2,1.9,2.6,1.5,4.3c0,1.5-2,2.6-0.9,4c2.4-0.7,4.2-2.2,6.4-3.1c2.1-1.3,4.1-3.2,6.7-3
		c0.9,0.5,1.2,1.5,1.3,2.4c-1.2,1.1-2.7,1.6-4,2.5c-1.4,0.5-2.1,1.8-3.5,1.9c-0.4,0.3-0.4,0.8-1,0.5c-0.4,0.2-0.8,0.8-0.7,1.2
		c1.2,0.8,2.5,1.7,2.2,3.3c-0.2,2.9-0.9,5.6-2.2,8.1c0.6,2,3,2.2,4.3,3.7c1.2,0.6,2.5,1.2,3.8,1.5c1.5-0.1,2.2,0.9,3.7,0.7
		c0.7,0.5,1.7,0.1,2.4,0.7c1.4-0.2,2.2,0.6,3.6,0.5c1.4,0.3,2.7,0.9,4.2,0.8c2,0.6,4.1,1.3,5.8,2.6c0.4,0.8-0.3,1.5-0.9,1.9
		c-1.9,1.2-4.3,1.1-6.3,2c-4.6,1.4-11.3,2-15-1.6c-2.2-1.3-4.5-3.1-6.4-4.9c-1.1-0.5-2-1.9-3.3-1c-1.2,0.6-1.8,1.9-3.2,2
		c-1.7,1.5-4.1,1.6-6.2,2.2c-1.4-0.8-2.9,0.8-4.2-0.3c-0.9-0.5-2.8,0-2.8-1.6c0.7-0.6,1.7-0.3,2.5-0.6c1.5-0.4,3-0.8,4.4-1.5
		c2-0.1,3.3-1.7,5.1-1.9c0.4-0.7,1.7-1.4,1.2-2.4c-2.9-3.4-6.8-5.6-10.1-8.5c0.1-0.3-0.1-0.4-0.1-0.7c1.6-1.1,3.6,0.8,5-0.7
		c-1.2-4.6,3.3-6.8,3.8-10.7c0.7-0.6,0.5-1.6,0.4-2.4c-0.1-1.5-2.6-2-1.6-3.5C92.9,32,94.1,32.9,95.4,33.5z M99,45.8
		c-2.7-0.4-4.3,2-6.7,2.6c-1.7,1,0.7,1.5,0.9,2.3c1.9,0.7,2.8,3.5,5.1,2.6c0.6-0.8,0.8-1.7,1.3-2.4c-0.1-1.5,0.9-2.7,0.2-4.2
		L99,45.8z"/>
	<path d="M30.9,34.4c1.6-0.7,3.3,0,4.6,0.8c1.3,1.3,1.9,3.2,1.3,5c-0.9,1.8-1.7,3.4-2.4,5.3c-0.8,2.2-0.9,4.7-2.9,6.4
		c-0.1,0.5,0.1,1,0.6,1.1c1.4,0.6,3-0.7,4.3,0.3c1.8-0.1,3.3-1,5.1-1c2-1.1,3.9,0.4,5.6,1.2c0.9,1.8,3.8,2.5,3.1,4.7
		c-2,0.3-2.7,2.2-4.3,2.8c-1.2-0.2-2-1.5-2.2-2.5c-1.1-2.2-3.5-3-5.9-3.1c-1.4,0.2-2.7,1-4.1,1.3c-0.3,0.5-0.8,1-0.2,1.5
		c1.6,1.5,3.7,2.2,5.1,4c0.3,1,1.1,2.3,0.1,3.2c0,0.5-0.6,0.8-0.9,1.1c-0.7,0-1.2,0.6-1.7,0.8c-3.2,0-6.5,1.7-9.6,0.4
		c-1.5-0.5-3.4-0.2-4.6-1.1c-3.9-0.3-8-3.1-9.2-6.7l-0.4-2.9c0.1-0.9,0.6-2,0.3-2.9c-1.1,0.1-1,1.5-2,1.9c-0.8,0.3-1.6-0.1-2.2-0.3
		c2-2.1-0.4-4.4-0.1-6.7c-0.8-2.3-0.1-5.2-1.7-7.2c0.1-0.8-0.5-1.3-0.9-1.9c-1.1-0.2-2.1-0.6-2.9-1.4c0-0.6,0.2-1.2,0.9-1.4
		c1.7-0.6,3.8-0.1,5.1,1c1.8-0.3,3.2-1.5,4.9-1.9c2-0.5,3.7-1.5,5.8-1.5C23.1,33.4,27,34.4,30.9,34.4z M33.6,35.8
		c-1.4,0.1-2.5,0.7-3.7,1.1c-2.2,0.8-4.6-0.4-6.7,0.4c-3.3,2.2,2.3,2.2,1.7,4.7c-0.2,1.1-1.1,2-1.9,2.9c0.1,0.4-0.1,0.6-0.4,0.8
		c-0.1,0.4-0.5,1.2,0.2,1.4h3.5c0.8,0.6,2,0.3,2.7,1c0.1,0.4-0.2,0.4-0.4,0.6c-0.4,2.3-3.1,1.4-4.7,1.9c-3,1.1-6.2,1.8-9.3,2.7
		c-0.8,2.6,1.2,4.7,2.4,6.8c2.2,2.6,6,2.4,9,3.4c1.7-0.2,3.7,1,4.9-0.3c0.1-0.9,0.2-1.7-0.1-2.6c-0.8-0.8-0.3-1.7-1.2-2.4
		c-3.3-0.8-5.1,2.2-8.2,2.2c-1.4-0.4-1.2-1.9-1.1-3c0.1-1.2-0.3-2.7,0.6-3.7c1.1-2,3.8-2,5.9-1.9c2.9-1.1,3.5-3.8,3.9-6.5
		c0.7-1,0.5-2.3,1.6-3.1c0.9-1.7,2.4-3.4,1.8-5.7C34.2,36.4,34.1,35.9,33.6,35.8z M17.1,37.9c-2.6,0.6-5.6,0.6-7.5,2.6
		c0.8,1.9,0.9,4.1,1.1,6.1c0.3,1.3,0.1,2.9,0.9,4c1.8-0.1,3.5-0.4,5.1-1.1c1-0.8,2-1.9,2-3.3c-1-0.8-2.1,0.1-3.3-0.1
		c-0.7-0.1-1.3-0.7-1-1.5c0.9-0.8,2-1.7,3.2-2.2c1.2-0.8,1.7-2.1,1.5-3.4C19,37.7,17.7,38.4,17.1,37.9z M3.5,56.8
		c-1.2,0.8-2.9,1.4-3.3,2.7c-0.9,2.7,1.2,4.7,3,6.2c1.8,0.4,2-2.1,3.6-2.5c0.3-2-2.3-1-2.9-2.5c-0.7-0.5-0.4-1.2-0.1-1.7
		C4.6,57.1,7,58,7.5,56.4C6.3,55.5,4.9,56.9,3.5,56.8z"/>
	<path d="M194.3,30.6c3,0.2,6.2,0.8,7.8,3.6c0.6,0.6,1.7,0.5,1.9,1.4c1.2,1.2,2.5,2.8,2,4.7c0,1.2-1.5,1.2-2,1.9
		c-0.9,0.3-0.6,1.3-0.9,2c0.7,3.9,0.7,8,1.2,12.1c-0.2,2.3,0,4.6-0.2,7c0,2.2,0.1,4.3-0.4,6.4c0.2,1.6-0.4,3.1-1.3,4.4
		c-2.3,1.7-5.4,0.9-7.9,0.1c-1.9-1.2-3.9-2.3-5.7-3.7c-1.1-1.7-3-2.7-5.2-2.4c-1.5,0.4-3.1-3-4.1-0.3c-0.4,0.5-1,0.2-1.4-0.1
		c-1.3-1.8-1.6-4.9-0.4-6.9c-0.1-0.5,0.1-1.1-0.5-1.2c-1.2,0.2-2.3,1-3.4,1.5c-2.5,1.3-2.3,4.1-2.4,6.4c-0.1,1.2-1.2,1.9-2,2.7
		c-1.4-0.4-3-1.5-3.5-3c0.1-4.9,1.3-9.4,0.8-14.4c-0.2-3.6-0.1-7.1-0.1-10.5c-0.9-1.7-2.2-3.6-1.2-5.6c0.3-0.2,0.6-0.4,1-0.2
		c1.7,1.7,3.3,3.6,4.4,5.8c0,1.1-0.3,2.4,0,3.6c-0.2,2.1,0.4,4.3,0.9,6.3c0.3,0.2,0.7,0.4,0.9,0.2c1.1-1,0.7-2.6,1.5-3.8
		c0.6-1.2,1.9-1.5,2.5-2.5c0.3,0,0.6-0.3,0.6-0.6c0.4-0.6,0.7-1.2,0.8-2c-1.3-1.5-3.7-2.4-4.3-4.5c-0.9-2.4-1.7-5-2.7-7.4
		c0.2-0.4-0.4-1.3,0.5-1.1c0.7,0.2,1.1,0.9,1.7,1.3c1.5,0.6,2,2.4,3.2,3.4c3.5,0.6,1.5,5.1,4.8,5.6c1.2,0.6,2.4,1.7,3.8,1.1
		c1.2-0.8,2.1-2.6,3.7-1.7c1.1,0.4,2.5,0.6,3.1,1.8c-0.2,1.7-2.2,2.4-2.7,3.9c-0.6,0.3-0.6,1-1.2,1.5c-0.1,0.5-0.6,0.9-0.3,1.4
		c0.3,0.6,1.2,0.4,1.6,0.2c1.9-0.9,3.7-3.9,6.1-2.2c0.7,0.3,0.9,0.8,1.2,1.5c0.3,1-0.4,1.3-0.7,2c-1.1,0.8-2.6,0.6-3.5,1.7
		c-2.5,0.8-5.1,2.4-6.6,4.6c0,0.2-0.1,0.4,0.2,0.6c3-1,6.9-4.5,9.9-1.4c0.7,0.7,0.9,1.7,0.7,2.8c-1,1.9-2.1,3.7-2,6
		c0.3,1.5-2.6,3.1-0.4,3.8c1.6-0.4,4-0.1,4.4-2c-0.5-2,0.7-3.6-0.3-5.4c-0.1-2,1-3.6,0.5-5.4c0.4-3,0.1-6.2-0.2-9.1
		c0.5-2.2-0.5-4.4-0.3-6.6c-1.4-3.4-5.6-1.2-8.3-1.8c-3.3-0.6-5.3-3.8-7.1-6.1c-0.1-0.5-0.6-0.8-0.4-1.4c0.3-0.8,1.2-0.3,1.7-0.6
		C187.3,29.9,191,29.8,194.3,30.6z M180.5,49.8c0.4,0.1,0.7-0.1,1-0.1c0.1-0.6,0.8-1,0.6-1.8C181.3,48.2,180.5,49,180.5,49.8z
		 M173.7,56.2c-0.8,0-1.7-0.8-2.3-0.1c-0.3,0.8,0,1.5,0.5,2.2c1.2,0.1,2.3-0.4,3.3-1c0.1-0.3,0.4-0.8,0.1-1.1H173.7z M186.7,60.9
		c-1.6,1-3.5,1.7-4.8,3c-0.3,0.2-0.2,0.7-0.1,1c1,0.1,1.7-0.5,2.5-0.7c1.1-1,2.8-1.7,3-3.3H186.7z"/>
</g>
</svg>
