<?xml version="1.0" encoding="utf-8"?>
<!-- Generator: Adobe Illustrator 18.0.0, SVG Export Plug-In . SVG Version: 6.00 Build 0)  -->
<!DOCTYPE svg PUBLIC "-//W3C//DTD SVG 1.1//EN" "http://www.w3.org/Graphics/SVG/1.1/DTD/svg11.dtd">
<svg version="1.1" id="レイヤー_1" xmlns="http://www.w3.org/2000/svg" xmlns:xlink="http://www.w3.org/1999/xlink" x="0px"
	 y="0px" width="9px" height="5px" viewBox="0 0 9 5" enable-background="new 0 0 9 5" xml:space="preserve">
<g id="レイヤー_2">
	<polygon fill="#333333" points="8,4 8,3 7,3 7,2 6,2 6,1 5,1 5,0 4,0 4,1 3,1 3,2 2,2 2,3 1,3 1,4 0,4 0,5 1,5 2,5 3,5 4,5 5,5 
		6,5 7,5 8,5 9,5 9,4 	"/>
</g>
</svg>
